<svg id="Layer_1" data-name="Layer 1" xmlns="http://www.w3.org/2000/svg" xmlns:xlink="http://www.w3.org/1999/xlink" width="1983.3191" height="1156.0851" viewBox="0 0 1983.3191 1156.0851"><defs><style>.cls-1{fill:#f4b8d1;}.cls-2{fill:#a59b96;}.cls-3{stroke:#3c2415;stroke-miterlimit:10;stroke-width:0.75px;fill:url(#linear-gradient);}.cls-4{fill:#423b46;}.cls-5{fill:#a17cc3;}.cls-6{fill:#726658;}.cls-7{fill:#878586;}.cls-8{fill:#f3f0ee;}.cls-9{fill:#efecea;}.cls-10{fill:#fdb7d4;}.cls-11{fill:#513c2d;}.cls-12{fill:#c8e0c6;}.cls-13{fill:#e0c9f3;}.cls-14{fill:#9b8579;}.cls-15{fill:#ff97bd;}.cls-16{fill:#c49a6c;}.cls-17{fill:#ec008c;}.cls-18{fill:#ede3e7;}.cls-19{fill:#505372;}.cls-20{fill:#576356;}</style><linearGradient id="linear-gradient" x1="118.6388" y1="559.5047" x2="302.2926" y2="559.5047" gradientUnits="userSpaceOnUse"><stop offset="0"/><stop offset="0.1028" stop-color="#603913"/><stop offset="0.4162" stop-color="#754c29"/><stop offset="0.6575" stop-color="#3c2415"/></linearGradient></defs><rect class="cls-1" width="1983.3191" height="1156.0851"/><path class="cls-1" d="M959.3578,1019.6142q-426.1787,0-852.3572.1078c-4.555.002-5.8765-.7675-5.8742-5.6784q.2171-477.063-.0233-954.1262c-.0029-5.3425,1.3836-5.98,6.24-5.9786q852.6729.1947,1705.3458-.0042c4.9178-.0012,6.21.7326,6.2075,6.0122q-.2514,477.063-.0159,954.1262c.0023,4.9744-1.4094,5.6471-5.9073,5.6453Q1386.1657,1019.5451,959.3578,1019.6142Zm-407.1369-104.36c11.469.4752,20.8888.601,30.2924.85,44.5649,1.1786,89.0561,5.0181,133.6759,4.0142,21.7551-.4895,43.4985-1.9892,65.25-2.0563,87.3757-.27,174.7526-.1618,262.1291-.1718,3.347,0,6.704.0953,10.0392.3613,26.33,2.1,52.7237,2.5526,79.0054.3291q36.6021-3.0969,73.269-4.2746c23.1849-.7127,46.437-1.7463,69.6047,1.91,11.2839,1.7807,14.1466-1.4317,14.0161-12.3478-.0934-7.8165.2731-7.8529,8.1353-7.0651,13.9,1.3928,27.8274,2.6165,41.7716,3.4183,6.6053.38,9.1456-2.5118,9.2625-9.0368.1988-11.1006-.1074-22.1428-2.1747-33.139-2.8958-15.4034-6.9044-30.8379-7.5026-46.3721-.7537-19.5763,1.2361-39.28,2.4309-58.9045,1.67-27.4251,1.4129-54.8636.3279-82.2676-1.0747-27.1419-5.9515-54.0622-4.6858-81.3813a292.7934,292.7934,0,0,0-.2242-33.2973c-1.9813-29.2036-4.8166-58.3471-6.0714-87.6045-.3763-8.773-1.0478-17.5344-1.66-26.2958-1.2836-18.3515-4.4327-36.5661-4.4958-54.9983-.1069-31.2176.0844-62.4363.1548-93.6545.0137-6.0653,1.4972-12.0608.8234-18.1628-1.6513-14.9561-3.0621-29.9434-5.037-44.8563-.5909-4.4612.8542-10.8035-3.0024-13.0264-6.2415-3.5973-5.1587-8.6972-5.6973-13.8678-.5228-5.0187-2.5529-8.0379-8.5509-7.2728a184.9171,184.9171,0,0,1-20.0293,1.1334c-12.0349.2175-12.1681.129-13.8258-11.9537-.764-5.57-3.5291-8.4254-9.1268-7.9885-6.52.5088-13.0512.2947-19.5978.7488-27.9543,1.9394-55.9293,4.1616-83.9844,4.1617-46.2875,0-92.5853,1.1164-138.8545-1.1918-18.8056-.9382-37.6183-1.85-56.414-2.8629-44.71-2.4085-89.4166-5.0143-134.1841-5.5889-29.5129-.3789-59.0568.351-88.562,1.3313-11.7089.389-23.4531.2759-35.1371,1.1651-37.3389,2.8416-74.6674,5.736-112.1481,5.963-12.9723.0785-25.9561.6389-38.9117.8587-29.909.5076-59.7987,1.4774-89.7626,1.095-47.126-.6014-94.099-3.5156-141.1326-5.57-8.9241-.39-9.942.8334-10.3164,9.8071-1.1808,28.3046,2.1823,56.4587,2.69,84.71.206,11.4663,3.7093,22.6541,3.6457,34.2485-.1641,29.9423-.6445,59.8751.7995,89.8251,1.3308,27.601.53,55.2655,1.2028,82.9074.9078,37.2745.2665,74.5849.5457,111.8779.083,11.0779.8261,22.1639,1.6232,33.22a361.7676,361.7676,0,0,1,.1778,46.4506,486.14,486.14,0,0,0-.3077,51.4866c1.5511,31.3253,3.894,62.6114,5.9126,93.9135.7132,11.0581,1.668,22.1062,2.1067,33.1749.4891,12.3391,1.4246,24.7481-.3,37.0221-1.0439,7.4277.0245,14.6087.7459,21.8587.3358,3.374,2.6518,5.0827,6.2459,4.5477,13.3839-1.9926,26.7473-.9835,39.9954.9405,25.489,3.7017,50.8691,6.4244,76.8208,4.8569C486.8465,916.2013,520.5871,916.1193,552.2209,915.2545Zm-320.4986-149.05c2.0575,5.9619,3.88,10.6336,5.2876,15.4274,6.0317,20.5486,15.0248,39.9786,22.5239,59.9715,1.5276,4.0727,3.8677,7.7828,8.8424,7.722,5.026-.0614,6.9368-4.0839,8.6082-8.0286.5693-1.3434.8864-2.7929,1.33-4.19,5.154-16.222,2.3317-32.8431,2.4122-49.3111.0453-9.2769-3.3161-17.6024-7.8484-25.5319a72.4829,72.4829,0,0,1-5.7716-12.5349c-4.74-13.8685-9.25-27.8312-14.547-41.4867a41.5775,41.5775,0,0,1-2.4615-20.87,121.7109,121.7109,0,0,0-3.158-45.5245c-4.5147-17.6808-10.9277-35.9323-27.1178-45.2012-11.772-6.74-17.5917-14.7359-20.8231-26.7877-1.2249-4.5688-2.2973-8.731-1.2413-13.432,3.9808-17.7217,13.4969-33.2139,19.958-49.9326a9.4926,9.4926,0,0,1,2.2245-3.0223c13.9852-14.1067,20.1058-32.0878,24.8139-50.7a89.1871,89.1871,0,0,1,6.0529-16.4139c16.2093-34.2352,32.1336-68.6053,48.24-102.89a33.84,33.84,0,0,0,2.6818-20.777c-1.3674-8.0349-2.0636-16.1838-3.0621-24.2818-.41-3.3262-.6826-6.68-1.3113-9.9659a10.1831,10.1831,0,0,0-7.5277-8.4291c-4.41-1.27-7.2,1.3-9.571,4.4042a105.4894,105.4894,0,0,0-10.9852,17.5557c-7.8727,16.0573-17.2886,31.3488-23.774,48.1023-.9257,2.3912-1.5115,5.2325-4.2439,6.8643-4.7183-11.5757-10.54-22.469-16.3763-33.3389-4.6568-8.6727-11.4607-16.082-20.2352-19.9438-20.811-9.1592-42.13-9.664-63.1455.1752-3.3154,1.5522-6.4028,3.683-7.4865,7.2411-2.4254,7.9623-6.2694,15.48-6.854,24.0437a159.0585,159.0585,0,0,1-2.77,19.2566c-5.1878,26.8485-8.8094,53.4485-2.062,80.88,6.8944,28.03,14.5761,55.48,31.0813,79.5933,9.164,13.3884,12.9158,27.7856,9.7578,43.887-1.2914,6.5843-2.046,13.3193-1.1035,20.0087,1.78,12.6365-3.2456,22.8145-10.7383,32.3622-19.3126,24.61-30.37,52.13-30.6524,83.8743-.3095,34.7219-.061,69.1756,16.3324,101.1907,2.2959,4.4837,5.5162,8.7921,9.8163,8.7076,6.6588-.1308,12.2557,3.4175,18.662,3.4273C192.181,798.3473,216.417,793.19,231.7223,766.2046ZM1591.734,965.5524c7.9423.03,13.754-1.2407,19.1014-3.5885,22.9985-10.0976,46.3025-19.6356,68.6718-30.9982,32.5094-16.5135,59.9368-40.4082,87.8882-63.47,10.1628-8.3847,12.7836-18.6606,10.6346-30.7933a75.5908,75.5908,0,0,0-9.7979-26.3727c-25.9019-42.491-48.5475-86.6681-66.0955-133.2261C1683.0559,626.48,1655.8631,580,1630.34,532.6583c-9.2407-17.1405-19.1884-33.9137-28.0455-51.2682a106.6652,106.6652,0,0,0-23.0434-30.365c-14.26-13.1021-29.5648-14.2862-45.6557-3.5652-6.6184,4.41-13.2184,8.8683-20.0391,12.95-37.5614,22.479-77.6788,40.3529-114.7571,63.74-8.4484,5.3288-16.2448,11.1009-22.2994,19.0381-9.1006,11.93-12.67,24.9053-6.9886,39.4688,1.8257,4.68,3.5758,9.4016,5.6692,13.9626,27.6024,60.1376,54.9987,120.372,82.9883,180.3291,21.6313,46.3368,44.5435,92.0392,73.0717,134.6563,9.2039,13.7494,18.1125,27.7655,30.003,39.4494C1570.21,959.8653,1580.8556,965.2622,1591.734,965.5524Zm-451.7458,13.6153c7.941-.1121,15.8916-.248,23.82-.4566,11.1846-.2942,21.8916-3.3047,32.858-4.1021,7.11-.517,12.35-3.5878,16.984-7.9314a7.3238,7.3238,0,0,0,.1647-10.3471c-2.4775-2.6937-5.1057-6.1654-8.1021-7.4833-10.457-4.5993-20.8922-10.5015-32.1862-11.6882-16.5909-1.7432-33.28-3.2911-50.0627-3.2684-29.3087.04-58.572.9385-87.8376,2.5055-36.5439,1.9569-73.1011,3.858-109.6775,4.9574-31.3707.9429-62.7493,1.7086-94.1241,2.5773-20.28.5613-40.5773.261-60.8913-.637a505.4078,505.4078,0,0,0-85.17,3.7994c-1.9875.2489-3.5654.4126-5.14-1.1562-3.1374-3.1248-6.8676-1.9317-8.799.7628-3.15,4.3941-6.6292,3.8546-10.9675,2.9977-8.8506-1.7481-18.5108,6.4125-18.9713,15.5669-.27,5.355,2.2219,8.2943,7.4614,8.9581,3.7314.4727,7.49,1.2932,11.21,1.1635,5.2106-.1819,7.7857,2.58,7.4152,7.029-.6594,7.9182,4.2016,8.9761,10.0343,9.3812a58.3822,58.3822,0,0,0,7.5333.1854c3.4016-.2052,5.3345.7632,6.1116,4.488,1.2261,5.8774,5.5938,8.8264,11.2937,9.2244,13.3428.9322,26.6152,2.8574,40.04,2.6864,14.66-.1868,29.3228-.1514,43.9841-.2414a43.44,43.44,0,0,0,13.5639-2.2408c4.1727-1.3949,7.194-4.48,6.946-8.7343-.37-6.3407,2.9875-6.4394,7.6793-6.4276,16.5448.0415,33.1306.4782,49.6269-.4931,32.97-1.941,65.86-4.9748,98.8976-6.1988,20.9022-.7744,41.8148-.5233,62.7239-1.7935C1064.2136,979.9543,1102.1552,981.4338,1139.9882,979.1677Zm622.3022-390.14c-.2485-2.53-.2947-4.43-.6368-6.2752a1222.5181,1222.5181,0,0,0-32.4173-134.289c-9.6648-31.6441-19.7878-63.1937-27.6292-95.2879-14.81-60.6152-31.294-120.7986-45.926-181.4557-3.8733-16.0559-9.24-31.7612-14.1987-47.54-1.5234-4.8471-4.0583-9.4767-9.8415-10.3985a24.4853,24.4853,0,0,0-22.2643,7.6624c-5.9067,6.1723-6.3018,14.3381-3.347,21.8272a99.9958,99.9958,0,0,1,4.2174,14.9968c1.5217,6.7421,3.01,13.4935,4.3832,20.2672,6.7854,33.4694,18.6379,65.7118,24.1339,99.4878a551.8976,551.8976,0,0,0,18.7976,77.4816c23.8317,75.5215,46.9666,151.2371,62.7758,228.9655.69,3.3949-.1548,7.473,2.6671,10.1334,8.648,8.1533,16.3182,17.4607,27.3361,22.8511,4.5554,2.2287,7.4446,1.3176,8.3108-3.6069C1760.1357,605.4105,1760.3482,596.7858,1762.29,589.0277ZM1602.3237,333.2986a264.19,264.19,0,0,0-9.2178-65.12c-3.6852-13.5181-6.1924-27.3642-15.9816-38.3775-4.9115-5.5257-10.473-9.6835-17.8065-10.9494-10.3819-1.7922-21.0236-2.3229-31.2708-.5307a358.9565,358.9565,0,0,0-61.8674,16.37c-18.1018,6.6377-34.9074,16.2853-53.2169,22.4785-10.9452,3.7022-17.8253,11.5932-21.7605,22.65-4.0923,11.4978-6.0973,23.064-.79,34.2239,4.1613,8.75,5.5323,17.9107,7.28,27.1042,4.0313,21.21,8.0383,42.4121,17.3995,62.1238,4.945,10.4123,12.9929,17.2536,23.8779,20.91,14.7888,4.968,29.8882,4.3187,44.7244,1.2407,33.5016-6.9505,64.5532-20.5971,94.6256-36.55,7.41-3.9308,12.6115-10.291,16.3585-17.7723C1600.6391,359.1973,1602.5386,346.4605,1602.3237,333.2986ZM1494.0159,102.23c-6.5146-.1934-17.868,3.176-25.01,7.4224-19.2251,11.4314-21.1855,33.1078-3.2315,46.4962,7.2182,5.3826,10.3894,11.9538,12.9989,19.7147,3.9916,11.8709,7.2068,24.07,13.6229,34.9894,4.7915,8.1545,12.2955,11.5,18.6944,8.5505,5.5606-2.5632,7.5187-9.3052,4.0344-18.31-4.8334-12.4923-8.8664-25.2226-13.0383-37.9292-3.3335-10.153-3.5714-9.9518,4.7491-16.76,4.5787-3.7462,9.1667-7.8028,7.0558-14.7663-2.0587-6.7922-4.585-13.4492-6.467-20.2865C1505.4829,104.2944,1500.1018,102.885,1494.0159,102.23Zm-85.1978,18.24c-8.6925-1.4212-15.8691,3.909-21.5079,10.2554-8.7958,9.8993-12.9441,17.3563-5.6022,29.6654,1.2818,2.1489,2.2071,4.5076,3.3622,6.7356,6.6449,12.8182,8.5994,13.942,22.7363,10.7828,4.252-.95,6.0148.1014,7.4142,3.9539,5.151,14.18,12.4806,27.3876,18.6976,41.0948a27.0322,27.0322,0,0,0,8.0122,10.32,11.0252,11.0252,0,0,0,12.9281,1.0464c4.09-2.2958,5.5248-6.3006,4.8862-10.742a110.5968,110.5968,0,0,0-3.1118-15.3406c-4.8112-16.423-10.1517-32.68-16.2947-48.6631a14.3767,14.3767,0,0,1-1.3217-6.6818C1440.85,133.7908,1428.89,120.5542,1408.8181,120.47Z" transform="translate(33.0426 44.5319)"/><path class="cls-2" d="M552.2209,915.2545c-31.6338.8648-65.3744.9468-98.9974,2.9778-25.9517,1.5675-51.3318-1.1552-76.8208-4.8569-13.2481-1.924-26.6115-2.9331-39.9954-.9405-3.5941.535-5.91-1.1737-6.2459-4.5477-.7214-7.25-1.79-14.431-.7459-21.8587,1.725-12.274.7895-24.683.3-37.0221-.4387-11.0687-1.3935-22.1168-2.1067-33.1749-2.0186-31.3021-4.3615-62.5882-5.9126-93.9135a486.14,486.14,0,0,1,.3077-51.4866,361.7676,361.7676,0,0,0-.1778-46.4506c-.7971-11.0565-1.54-22.1425-1.6232-33.22-.2792-37.293.3621-74.6034-.5457-111.8779-.6732-27.6419.128-55.3064-1.2028-82.9074-1.444-29.95-.9636-59.8828-.7995-89.8251.0636-11.5944-3.44-22.7822-3.6457-34.2485-.5076-28.251-3.8707-56.4051-2.69-84.71.3744-8.9737,1.3923-10.1969,10.3164-9.8071,47.0336,2.0545,94.0066,4.9687,141.1326,5.57,29.9639.3824,59.8536-.5874,89.7626-1.095,12.9556-.22,25.9394-.78,38.9117-.8587,37.4807-.227,74.8092-3.1214,112.1481-5.963,11.684-.8892,23.4282-.7761,35.1371-1.1651,29.5052-.98,59.0491-1.71,88.562-1.3313,44.7675.5746,89.4739,3.18,134.1841,5.5889,18.7957,1.0125,37.6084,1.9247,56.414,2.8629,46.2692,2.3082,92.567,1.1919,138.8545,1.1918,28.0551,0,56.03-2.2223,83.9844-4.1617,6.5466-.4541,13.078-.24,19.5978-.7488,5.5977-.4369,8.3628,2.4189,9.1268,7.9885,1.6577,12.0827,1.7909,12.1712,13.8258,11.9537a184.9171,184.9171,0,0,0,20.0293-1.1334c5.998-.7651,8.0281,2.2541,8.5509,7.2728.5386,5.1706-.5442,10.27,5.6973,13.8678,3.8566,2.2229,2.4115,8.5652,3.0024,13.0264,1.9749,14.9129,3.3857,29.9,5.037,44.8563.6738,6.102-.81,12.0975-.8234,18.1628-.07,31.2182-.2617,62.4369-.1548,93.6545.0631,18.4322,3.2122,36.6468,4.4958,54.9983.6127,8.7614,1.2842,17.5228,1.66,26.2958,1.2548,29.2574,4.09,58.4009,6.0714,87.6045a292.7934,292.7934,0,0,1,.2242,33.2973c-1.2657,27.3191,3.6111,54.2394,4.6858,81.3813,1.085,27.404,1.3416,54.8425-.3279,82.2676-1.1948,19.6249-3.1846,39.3282-2.4309,58.9045.5982,15.5342,4.6068,30.9687,7.5026,46.3721,2.0673,10.9962,2.3735,22.0384,2.1747,33.139-.1169,6.525-2.6572,9.4165-9.2625,9.0368-13.9442-.8018-27.8717-2.0255-41.7716-3.4183-7.8622-.7878-8.2287-.7514-8.1353,7.0651.13,10.9161-2.7322,14.1285-14.0161,12.3478-23.1677-3.6562-46.42-2.6226-69.6047-1.91q-36.6565,1.1266-73.269,4.2746c-26.2817,2.2235-52.6759,1.7711-79.0054-.3291-3.3352-.266-6.6922-.3617-10.0392-.3613-87.3765.01-174.7534-.0978-262.1291.1718-21.7519.0671-43.4953,1.5668-65.25,2.0563-44.62,1.0039-89.111-2.8356-133.6759-4.0142C573.11,915.8555,563.69,915.73,552.2209,915.2545ZM352.8819,451.339c0,15.2837-.1752,30.57.0344,45.8509.5315,38.7373,1.597,77.47,1.7929,116.2086.37,73.1149.2652,146.2321.3969,219.3483.0159,8.8056.1372,17.6119-1.7582,26.27-.7912,3.6139-.2779,4.9879,3.9672,4.0778,24.4855-5.2491,49.3312-6.9589,74.3044-6.4438,18.8361.3885,37.6547,1.5555,56.488,2.1623,26.58.8564,53.1617,1.7777,79.75,2.1986,42.0746.666,84.088,3.29,126.2316,2.117,48.5743-1.3519,97.1826-.98,145.7831.3827,59.4859,1.6682,118.98-.7045,178.47-.49,31.1978.1125,62.3906,1.2865,93.5887,1.79,41.051.6625,82.1073,1.0182,123.1566,1.7656,12.1289.2207,24.2348,1.5134,36.3645,1.9514,9.38.3388,18.6568,2.202,28.1912.8359,5.0949-.73,6.2741-2.7975,6.0121-7.2769q-.5682-9.7116-.6491-19.4505c-.26-30.3764-.29-60.7555-.7065-91.1294-.2494-18.21-.928-36.4173-1.6443-54.6168-1.1365-28.88-3.1929-57.771-1.322-86.6578,1.4631-22.5918,2.6706-45.1585,1.8014-67.7861-.667-17.363-1.6423-34.7143-2.493-52.07-1.0043-20.49-1.8594-40.9885-3.0727-61.466-1.7467-29.4767-4.164-59.0321-1.1494-88.4524,4.3588-42.54,6.9013-85.08,5.6552-127.8357-.11-3.7771-.7846-5.7095-5.2533-5.5284-26.7923,1.0852-53.6092.4377-80.4195.9368-48.7962.9085-97.5281,3.0973-146.274,5.2135-36.399,1.58-72.819,2.7611-109.24,3.741q-81.018,2.18-162.0506,3.8084c-43.7624.9426-87.5262,2.0769-131.2949,2.4121-62.4227.478-124.8587,1.1525-187.2638-1.194-13.59-.5109-27.1631-1.6769-40.7176-2.8483q-45.99-3.9742-91.9474-8.321c-5.5341-.5245-6.9134,1.4076-6.2109,6.6828,3.8181,28.67,5.4335,57.5135,6.3576,86.4031.4886,15.2774,1.1794,30.5509,1.4533,45.832C349.8215,383.6608,355.1309,417.3521,352.8819,451.339Zm-12.2,414.6221c2.4739-8.6166,4.3617-17.275,4.3269-26.2412-.3745-96.5579,1.2195-193.1315-2.1306-289.6657-1.8222-52.506,3.2944-105.0509-1.5033-157.5606-3.048-33.3606-2.3607-66.9328-4.0973-100.3747-1.0624-20.46-2.083-40.9376-4.482-61.32-1.0769-9.1489-2.2662-18.26-3.8369-27.3329-.4622-2.67-.8277-5.7079,2.383-7.0892,2.6844-1.1548,4.937-.122,6.36,2.4229,1.5832,2.8323,4.2959,2.047,6.7151,2.21,14.195.9565,28.4421,1.426,42.576,2.9478,33.4945,3.6065,67.03,6.8,100.6817,8.1224,27.8256,1.0932,55.6978,1.3143,83.55,1.3375,34.5584.0289,69.12-.38,103.6754-.9,39.992-.6028,79.98-1.4911,119.9679-2.3333,37.8937-.7982,75.7847-1.7252,113.6781-2.5425,28.4769-.6142,56.9588-1.0235,85.4324-1.7586,16.3158-.4212,32.6142-1.4942,48.93-1.9556,51.898-1.4677,103.7134-5.0168,155.6493-5.729,18.8386-.2584,37.6845-.6328,56.5293-.8457,4.935-.0557,6.8406-3.4672,4.5854-7.8024-1.5735-3.0246-4.3491-2.1231-6.6761-1.9956-26.9495,1.4761-53.88,4.0664-80.84,4.4153-56.5327.7317-113.08,1.7679-169.602-1.775-39.2663-2.4613-78.6068-3.7408-117.9144-5.5425-14.6337-.6707-29.2625-1.5256-43.9037-1.9464-34.7764-.9993-69.5259.8914-104.2873,1.4055-32.4326.48-64.7371,3.9511-97.12,5.5958-29.0549,1.4758-58.1835,1.4361-87.2627,2.5173-52.1382,1.9385-104.2476,1.1931-156.355-.91-5.6456-.2278-11.287-.5632-16.9288-.8771-17.3406-.9648-34.6821-1.9128-52.0189-2.9422-3.4687-.206-5.4233.4908-5.468,4.6635A528.3617,528.3617,0,0,0,323.333,246.74c1.74,18.7245,4.8885,37.2755,4.5449,56.2247-.5846,32.2446-.7185,64.4946.7741,96.7436,1.1811,25.5195.5018,51.0869,1.0692,76.6366.851,38.3236.4377,76.6749.6007,115.0142.0124,2.923.3378,5.8442.5058,8.767,1.3694,23.8356,2.6989,47.6819,1.2881,71.556a459.186,459.186,0,0,0-.2345,50.865c1.6139,31.1251,3.9311,62.2133,5.8843,93.3213C338.8138,832.5612,339.7148,849.2632,340.6822,865.9611Zm972.0985-610.0306a412.9959,412.9959,0,0,1-3.5533,55.913c-4.6924,37.169-4.0322,74.3557-1.8924,111.6014,2.6891,46.806,5.1678,93.6214,6.1744,140.501.4051,18.8683-1.93,37.6245-2.4466,56.4456-1.0358,37.7108,2.5282,75.3143,3.2164,112.9853.7805,42.7235.9965,85.4574,1.4738,128.1865.0391,3.5074-.1764,6.8816,1.8826,10.262,2.1188,3.4786-.0844,6.7359-3.7169,6.7651-10.2513.0829-20.39,2.4164-30.6984,1.2114-7.6825-.8979-15.4088-1.4372-23.1225-2.0473-28.0042-2.215-56.0964-1.3311-84.1425-2.251-34.3272-1.126-68.6956-.6526-103.0489-1.3846-90.7038-1.9331-181.4411,1.5661-272.1489-1.3566-58.8479-1.8962-117.6829,2.4827-176.5618.1608-38.7028-1.5262-77.43-2.8386-116.18-3.3357-13.3788-.1716-26.8076-.2316-40.1843-1.0725-26.7552-1.682-53.4972-2.9237-80.238.2354-3.0983.366-6.3586-.2879-6.2445,4.727.106,4.6531,2.9806,4.9993,6.262,5.01,24.9322.0841,49.76,3.1394,74.6094,3.5372,36.9675.5917,73.9628,2.8938,110.9938-1.7332,29.1324-3.64,58.5909-.5947,87.8773.1979,28.4386.77,56.84,4.1682,85.2591,4.1772,103.0377.0325,206.1384,3.9167,309.0817-3.577,14.4412-1.0512,28.8768-.8968,43.3069-1.481,28.9037-1.17,57.8186-.8142,86.7141-.3586,35.9885.5673,71.9658,1.9788,107.6793,7.0539,13.3289,1.8941,26.8121.5669,40.1265,1.8454,5.1918.4986,5.4528-1.119,5.4587-5.1584.02-13.4934-2.9768-26.5939-4.8643-39.8357-2.1785-15.2831-6.577-30.2153-5.32-46,2.46-30.8852,4.06-61.8141,3.92-92.8358-.1274-28.3072-3.9593-56.3834-4.9559-84.5516-1.31-37.0159-.9618-74.0766-4.2138-111.045-1.87-21.2538-1.9817-42.6725-4.1545-63.887-3.3317-32.5287-5.6179-65.0458-4.83-97.7617.5192-21.561-.4039-43.1329,1.0385-64.7043A85.9822,85.9822,0,0,0,1312.7807,255.9305Zm-33.549,645.4229c-.056-3.5.6836-6.9793-4.5609-7.3309-15.86-1.0634-31.6788-2.87-47.55-3.607-44.38-2.06-88.8-1.2811-133.208-1.289-2.7221,0-5.4479.0505-8.1655.1989-40.3279,2.2015-80.5865,5.92-121.0134,5.97q-98.0595.1209-196.1188-.1275c-16.9538-.0526-33.9477-.385-50.8483-1.6166-34.6735-2.5267-69.4039-3.301-104.1254-4.4873-19.9146-.68-39.6038,2.5132-59.3653,3.3892-52.1211,2.31-104.2368-.72-156.2838-3.9154-7.24-.4445-14.6514-.1473-21.725-2.7427-2.9415-1.0793-4.5142-2.46-4.8172-5.6648-.8923-9.4361-.9816-9.45-10.2007-7.6023-2.8716.5755-5.725,1.2556-8.5627,1.9818a6.2679,6.2679,0,0,1-5.4169-.574c-1.4241-.96-2.6168-3.5177-4.6706-1.6123-1.6449,1.5259-1.5624,4.29-.7421,5.9595,3.2392,6.5928,1.5044,13.1783.3128,19.6638-.7708,4.1962.8019,4.8309,4.2238,4.3113,10.7014-1.6249,21.4045-.6825,31.8622,1.29,32.5972,6.1484,65.3817,5.2757,98.2516,3.83,34.1-1.5,68.2305-2.9184,102.36-1.7854,43.0945,1.4307,86.1319,4.8108,129.28,4.3538,25.3271-.2682,50.6422-1.788,75.9685-1.976,50.2844-.3734,100.578.224,150.858-.39,59.4769-.7263,118.9124,1.6892,178.3726,1.5046,27.0084-.0839,53.8457-3.7731,80.8675-4.3882,26.5783-.6052,53.1354-2.6262,79.6134,1.3019C1277.9166,906.6057,1279.9881,905.6146,1279.2317,901.3534Z" transform="translate(33.0426 44.5319)"/><path class="cls-3" d="M231.7223,766.2046C216.417,793.19,192.181,798.3473,165.48,798.3064c-6.4063-.01-12.0032-3.5581-18.662-3.4273-4.3.0845-7.52-4.2239-9.8163-8.7076-16.3934-32.0151-16.6419-66.4688-16.3324-101.1907.2829-31.7444,11.34-59.2647,30.6524-83.8743,7.4927-9.5477,12.5187-19.7257,10.7383-32.3622-.9425-6.6894-.1879-13.4244,1.1035-20.0087,3.158-16.1014-.5938-30.4986-9.7578-43.887-16.5052-24.1138-24.1869-51.5638-31.0813-79.5933-6.7474-27.4315-3.1258-54.0315,2.062-80.88a159.0585,159.0585,0,0,0,2.77-19.2566c.5846-8.5637,4.4286-16.0814,6.854-24.0437,1.0837-3.5581,4.1711-5.6889,7.4865-7.2411,21.016-9.8392,42.3345-9.3344,63.1455-.1752,8.7745,3.8618,15.5784,11.2711,20.2352,19.9438,5.8366,10.87,11.658,21.7632,16.3763,33.3389,2.7324-1.6318,3.3182-4.4731,4.2439-6.8643,6.4854-16.7535,15.9013-32.045,23.774-48.1023a105.4894,105.4894,0,0,1,10.9852-17.5557c2.371-3.1038,5.1614-5.6738,9.571-4.4042a10.1831,10.1831,0,0,1,7.5277,8.4291c.6287,3.2854.9012,6.64,1.3113,9.9659.9985,8.098,1.6947,16.2469,3.0621,24.2818a33.84,33.84,0,0,1-2.6818,20.777c-16.1059,34.2844-32.03,68.6545-48.24,102.89a89.1871,89.1871,0,0,0-6.0529,16.4139c-4.7081,18.6118-10.8287,36.5929-24.8139,50.7a9.4926,9.4926,0,0,0-2.2245,3.0223c-6.4611,16.7187-15.9772,32.2109-19.958,49.9326-1.056,4.701.0164,8.8632,1.2413,13.432,3.2314,12.0518,9.0511,20.0481,20.8231,26.7877,16.19,9.2689,22.6031,27.52,27.1178,45.2012a121.7109,121.7109,0,0,1,3.158,45.5245,41.5775,41.5775,0,0,0,2.4615,20.87c5.2971,13.6555,9.8074,27.6182,14.547,41.4867a72.4829,72.4829,0,0,0,5.7716,12.5349c4.5323,7.9295,7.8937,16.255,7.8484,25.5319-.08,16.468,2.7418,33.0891-2.4122,49.3111-.4439,1.3974-.761,2.8469-1.33,4.19-1.6714,3.9447-3.5822,7.9672-8.6082,8.0286-4.9747.0608-7.3148-3.6493-8.8424-7.722-7.4991-19.9929-16.4922-39.4229-22.5239-59.9715C235.6027,776.8382,233.78,772.1665,231.7223,766.2046ZM218.1536,623.6264l-.2656-1.08-.5076.3671.8376.6557c1.5487,8.1489,6.1661,14.9864,9.5241,22.361C225.82,637.9468,224.0236,629.9081,218.1536,623.6264ZM185.7667,491.0823l2.733.3488c1.0087-2.6931,2.16-5.3423,3.0042-8.0861,8.3772-27.2385,18.8685-53.7263,28.6422-80.4654,4.1093-11.2422,7.6645-21.9089,4.8308-34.5643-3.7524-16.759-8.2744-32.86-18.5948-46.8112-3.7733-5.1009-8.3308-9.2-14.6846-11.2714-10.0686-3.2819-10.427-3.1762-10.0961,7.6753,1.391,45.6216,2.8526,91.2413,4.1148,136.8664C186.0507,466.8683,185.7667,478.9792,185.7667,491.0823ZM157.3379,755.2706c-2.1379,7.7718,5.3687,13.36,12.4407,19.0515,3.31,2.6641,7.2646,1.0927,7.9528-3.1555.3554-2.1937-.271-4.5384-.39-6.8181-.5628-10.8141-2.7226-21.85-1.2859-32.3941,2.3636-17.3468,3.6526-34.773,5.5513-52.1424,2.4422-22.3412,4.0344-44.7745,6.1117-67.1571.3595-3.8736-1.03-6.11-4.826-6.5941-4.9484-.6312-16.7751,9.59-17.3373,14.538-1.8615,16.3838-1.2263,32.8289-1.5147,49.2549-.117,6.6572-.8758,13.3055-1.408,19.9525C160.9711,710.5625,159.278,731.3162,157.3379,755.2706Zm33.8378-112.4972a24.0628,24.0628,0,0,0-.7366,3.1745c-.8065,41.4225-7.1828,82.62-4.8956,124.1874.3172,5.7666,2.4428,6.3838,6.8638,4.8546a25.2913,25.2913,0,0,0,6.25-2.8536c10.04-7.0152,17.0928-16.5,22.3109-27.4766,1.12-2.356.4384-4.4413-.2482-6.6666-6.2986-20.4116-12.5344-40.8426-18.8449-61.25C198.4966,665.8173,195.0076,654.9262,191.1757,642.7734Zm56.6253-225.308c.4854-.222,1.0551-.2954,1.1628-.5582,11.1121-27.0915,24.212-53.2385,37.2616-79.4256,3.1664-6.3541,7.3388-12.7971,5.9208-20.74-1.3527-7.5773-2.2483-15.235-3.5023-22.8314-.45-2.7281,1.5942-7.114-1.7075-7.8457-3.8419-.8514-4.4091,4.172-6.3938,6.6439a10.4209,10.4209,0,0,0-.862,1.6706c-11.0135,20.6286-21.1111,41.706-30.8492,62.9591-2.6817,5.8529-2.8347,12.3074-2.2147,18.3079,1.131,10.9447,2.9095,21.7651,1.8361,32.8486C248.17,411.4174,245.9171,414.3137,247.801,417.4654Zm-67.1572,83.2583a103.0674,103.0674,0,0,1-3.6952-25.32c-.2724-26.9382-1.4928-53.8233-2.4668-80.733-.7472-20.6452-2.2152-41.3051-1.7111-62.0147.13-5.3355-1.3073-10.7244-1.1771-16.1843.0828-3.4718-1.61-3.33-3.8229-1.4044-3.9466,3.4339-6.4384,7.2713-6.2919,12.959.3653,14.1895.161,28.3751,1.2474,42.5661,1.0347,13.5154.5082,27.1127,1.0048,40.6808.8394,22.9329,1.7956,45.8641,3.0092,68.7772.4473,8.4447.8235,17.3326,8.521,23.3159,1.2591.9787,2.1266,3.1251,3.9957,2.4509C181.2659,505.0927,180.1645,502.8962,180.6438,500.7237Zm65.0487,218.98c-1.4865,6.6826-1.9324,11.98-3.8557,16.6718-4.4837,10.9374-4.06,20.941.1692,32.2973,7.79,20.9148,15.2709,41.9528,23.4777,62.7192.5,1.2665.5678,3.1791,2.5937,2.9459,1.567-.18,1.4964-1.7541,1.8194-2.9283a63.5662,63.5662,0,0,0,2.4687-14.1121c.455-10.0566-1.5381-19.9682-1.2862-29.9712a29.833,29.833,0,0,0-3.6321-15.0119c-5.3585-10.17-10.3008-20.4819-13.0494-31.7753C252.7353,733.7079,249.7893,727.2645,245.6925,719.7034Zm-19.4919,5.0031,1.6407-.1753c.8185-3.63,1.6811-7.2514,2.448-10.8926,3.7818-17.9568,3.1824-34.8312-5.7292-52.0232-8.0938-15.6145-15.3108-31.9875-20.3738-49.0568-1.3969-4.7094-6.0368-7.9008-9.9161-6.4061-5.2765,2.0332-1.4735,5.9744-.8559,8.4923,6.66,27.1538,15.6066,53.65,23.64,80.41C220.0279,704.9615,223.1475,714.824,226.2006,724.7065ZM156.0783,466.7228q-1.911-62.7791-3.8218-125.5581C133.8452,383.4669,134.2975,425.3579,156.0783,466.7228Zm19.3438,93.79c-1.6113,11.3584,5.7564,17.3147,13.5092,23.0075,2.2082,1.6215,4.7687,3.4593,7.412,1.5585,3.0038-2.16,1.8335-5.2562.4743-7.92a34.7611,34.7611,0,0,1-3.9458-13.6131c-1.0427-13.9467,2.7235-26.4027,9.67-38.2162,1.2085-2.0553,3.1024-4.6317.1008-6.6082-2.2866-1.5058-4.6191-.6876-6.9275.9173C181.3852,529.6014,176.567,544.1945,175.4221,560.5131Zm53.8234-147.1507-1.5994-.3806c-2.8494,4.2382-3.5593,9.457-5.4875,14.103C212.3,450.8392,205.2938,475.61,196.425,499.72c-.5724,1.556-1.6324,3.5111-.0971,4.6584,1.8211,1.3608,2.9369-.8282,4.0176-1.9015a59.011,59.011,0,0,0,7.0994-7.9114c11.8433-16.928,16.6843-36.2684,19.4834-56.268C228.0841,430.04,228.4955,421.6772,229.2455,413.3624ZM152.3461,735.2631q2.56-47.79,5.1211-95.5793C144.3035,670.9937,142.7933,702.8627,152.3461,735.2631Z" transform="translate(33.0426 44.5319)"/><path class="cls-4" d="M1591.734,965.5524c-10.8784-.29-21.5241-5.6871-30.4906-14.4978-11.89-11.6839-20.7991-25.7-30.003-39.4494-28.5282-42.6171-51.44-88.3195-73.0717-134.6563-27.99-59.9571-55.3859-120.1915-82.9883-180.3291-2.0934-4.561-3.8435-9.2828-5.6692-13.9626-5.6819-14.5635-2.112-27.5384,6.9886-39.4688,6.0546-7.9372,13.851-13.7093,22.2994-19.0381,37.0783-23.3872,77.1957-41.2611,114.7571-63.74,6.8207-4.082,13.4207-8.54,20.0391-12.95,16.0909-10.721,31.3952-9.5369,45.6557,3.5652a106.6652,106.6652,0,0,1,23.0434,30.365c8.8571,17.3545,18.8048,34.1277,28.0455,51.2682,25.5231,47.3415,52.7159,93.8216,71.7966,144.4455,17.548,46.558,40.1936,90.7351,66.0955,133.2261a75.5908,75.5908,0,0,1,9.7979,26.3727c2.149,12.1327-.4718,22.4086-10.6346,30.7933-27.9514,23.0616-55.3788,46.9563-87.8882,63.47-22.3693,11.3626-45.6733,20.9006-68.6718,30.9982C1605.488,964.3117,1599.6763,965.5825,1591.734,965.5524Zm-36.0856-514.849c-8.03.097-22.206,7.4472-30.1683,15.4036-4.2464,4.2432-5.98,8.9869-4.0146,14.82,2.42,7.1851.0743,12.6728-5.9509,16.8954a225.0476,225.0476,0,0,1-23.8946,15.0608c-19.1185,10.1031-39.6026,17.1112-58.9986,26.5782-7.6773,3.7471-11.4774,2.3835-16.7955-4.4692-1.4319-1.8449-2.3621-3.3319-5.4793-2.7634-12.2605,2.2362-20.5916,9.758-27.2993,19.48-5.628,8.1573-8.0292,17.002-4.075,26.7291,1.97,4.8473,3.6613,9.8193,5.842,14.5681,28.41,61.8672,56.5879,123.8439,85.4439,185.5029,21.1447,45.1815,43.8066,89.6083,71.9146,130.9965,8.2336,12.124,16.0892,24.5976,26.8414,34.7492,10.7572,10.1563,23.2646,14.4448,37.4656,8.3093,24.5916-10.6244,49.4889-20.6542,73.1372-33.301,29.9333-16.008,55.036-38.7,81.298-59.7806,6.5392-5.2492,8.3374-11.7681,7.2153-19.4875a67.3081,67.3081,0,0,0-9.4806-25.789c-30.2257-49.0519-54.2514-101.0738-74.5824-154.8953-4.8136-12.7431-10.885-24.9482-17.1746-37.0438-24.4493-47.02-50.45-93.1979-75.6649-139.8021-5.7785-10.6806-13.6934-19.4863-22.8451-27.3155A18.19,18.19,0,0,0,1555.6484,450.7034Z" transform="translate(33.0426 44.5319)"/><path class="cls-5" d="M1139.9882,979.1677c-37.833,2.2661-75.7746.7866-113.5821,3.0832-20.9091,1.27-41.8217,1.0191-62.7239,1.7935-33.0379,1.224-65.9272,4.2578-98.8976,6.1988-16.4963.9713-33.0821.5346-49.6269.4931-4.6918-.0118-8.0491.0869-7.6793,6.4276.248,4.2539-2.7733,7.3394-6.946,8.7343a43.44,43.44,0,0,1-13.5639,2.2408c-14.6613.09-29.324.0546-43.9841.2414-13.425.171-26.6974-1.7542-40.04-2.6864-5.7-.398-10.0676-3.347-11.2937-9.2244-.7771-3.7248-2.71-4.6932-6.1116-4.488a58.3822,58.3822,0,0,1-7.5333-.1854c-5.8327-.4051-10.6937-1.463-10.0343-9.3812.37-4.4486-2.2046-7.2109-7.4152-7.029-3.719.13-7.4781-.6908-11.21-1.1635-5.24-.6638-7.7309-3.6031-7.4614-8.9581.46-9.1544,10.1207-17.315,18.9713-15.5669,4.3383.8569,7.8178,1.3964,10.9675-2.9977,1.9314-2.6945,5.6616-3.8876,8.799-.7628,1.5751,1.5688,3.153,1.4051,5.14,1.1562a505.4078,505.4078,0,0,1,85.17-3.7994c20.314.898,40.6115,1.1983,60.8913.637,31.3748-.8687,62.7534-1.6344,94.1241-2.5773,36.5764-1.0994,73.1336-3.0005,109.6775-4.9574,29.2656-1.567,58.5289-2.4659,87.8376-2.5055,16.7823-.0227,33.4718,1.5252,50.0627,3.2684,11.294,1.1867,21.7292,7.0889,32.1862,11.6882,2.9964,1.3179,5.6246,4.79,8.1021,7.4833a7.3238,7.3238,0,0,1-.1647,10.3471c-4.6342,4.3436-9.8737,7.4144-16.984,7.9314-10.9664.7974-21.6734,3.8079-32.858,4.1021C1155.88,978.92,1147.9292,979.0556,1139.9882,979.1677Zm-2.7636-9.9927c5.4468,0,10.9361.4364,16.3321-.0869,13.0526-1.2656,26.4436-.0623,39.0227-4.9844,1.86-.7278,4.4824-.6182,4.9848-3.1764.5233-2.6646-1.4345-4.7069-3.3428-5.5816-6.61-3.03-12.9771-7.3725-20.1794-8.1909-13.9033-1.58-27.9245-2.4612-41.9182-2.84-30.9841-.8377-61.9322.4976-92.879,2.1479-36.9681,1.9714-73.9514,3.8026-110.95,5.0092-29.49.9617-58.9919,1.6117-88.4872,2.4739-24.0526.7031-48.1269.7584-72.2164-.6091-24.4716-1.3893-48.9438.8367-73.3622,2.5153-13.27.9122-13.2341,1.3926-14.8215,14.8666-.0978.83-.31,1.6455-.4388,2.4725-1.2994,8.34-1.11,8.6044,7.1277,8.7043,47.5413.5761,95.0524-2.1683,142.5993-1.2882,10.6789.1976,21.4143.4886,32.0432-.32,37.9434-2.8866,75.8831-5.9791,113.926-6.8835q39.5428-.94,79.0523-2.4773C1081.5309,969.85,1109.4163,971.1864,1137.2246,969.175Z" transform="translate(33.0426 44.5319)"/><path class="cls-6" d="M1762.29,589.0277c-1.9422,7.7581-2.1547,16.3828-3.6389,24.82-.8662,4.9245-3.7554,5.8356-8.3108,3.6069-11.0179-5.39-18.6881-14.6978-27.3361-22.8511-2.8219-2.66-1.9766-6.7385-2.6671-10.1334-15.8092-77.7284-38.9441-153.444-62.7758-228.9655a551.8976,551.8976,0,0,1-18.7976-77.4816c-5.496-33.776-17.3485-66.0184-24.1339-99.4878-1.3732-6.7737-2.8615-13.5251-4.3832-20.2672a99.9958,99.9958,0,0,0-4.2174-14.9968c-2.9548-7.4891-2.56-15.6549,3.347-21.8272a24.4853,24.4853,0,0,1,22.2643-7.6624c5.7832.9218,8.3181,5.5514,9.8415,10.3985,4.9591,15.7788,10.3254,31.4841,14.1987,47.54,14.632,60.6571,31.1162,120.8405,45.926,181.4557,7.8414,32.0942,17.9644,63.6438,27.6292,95.2879a1222.5181,1222.5181,0,0,1,32.4173,134.289C1761.9957,584.5974,1762.0419,586.4972,1762.29,589.0277Zm-16.529,14.4532c-1.8181,3.6909,1.8865,4.4792,3.4114,6.3822.5454.68,1.7421.9166,2.1941.1769,1.2992-2.1264.8113-4.4111-.008-6.6079a11.6362,11.6362,0,0,0-.92-1.6339c1.6445-3.5369,1.286-7.3554,1.5286-11.0843.0784-1.2069.2229-2.467-1.2065-3.2186-2.6087-1.3719-13.401,1.8915-14.8781,5.0241-1.9128,4.0561,2.7413,4.8144,4.367,7.0626A9.16,9.16,0,0,0,1745.7614,603.4809Zm5.3206-29.0505c-.2328-1.2321-.4515-2.4671-.7011-3.6958-6.9161-34.033-15.7126-67.615-24.0271-101.3184-4.8211-19.5429-13.0534-37.9418-17.9162-57.4471-7.9925-32.0586-18.6272-63.422-25.0251-95.9122-4.6544-23.638-12.7164-46.3968-18.6422-69.7137-.7049-2.7743-1.1917-6.09-5.5767-4.9762-4.6612,1.1835-9.3463,2.2738-14.027,3.3791-2.7054.6389-3.6874,1.9757-3.0818,4.97,3.9379,19.4677,7.1814,39.09,11.6211,58.439,9.2288,40.222,23.2377,79.074,34.9542,118.5851,10.2323,34.5058,20.6081,68.956,28.419,104.1172,3.5832,16.1294,7.3109,32.227,10.8456,48.3668.9262,4.23,2.79,5.2069,6.5723,2.9926a26.3654,26.3654,0,0,1,13.1374-3.7591C1750.3224,578.4251,1751.4221,577.0709,1751.082,574.43ZM1613.6989,135.478c1.1681,5.0206,2.5782,10.914,3.9078,16.8254,5.9239,26.3368,11.9541,52.6443,19.0293,78.7067,1.3042,4.8044,3.4838,5.9423,8.0681,4.6553a64.2693,64.2693,0,0,1,12.3234-2.183c3.6162-.2807,3.9-1.7205,3.3522-4.8729-5.86-33.7049-16.581-66.1113-26.2493-98.797-1.2171-4.1148-2.7507-8.12-8.5962-6.8305C1617.5577,124.741,1613.5873,128.479,1613.6989,135.478Z" transform="translate(33.0426 44.5319)"/><path class="cls-7" d="M1602.3246,333.3013c.214,13.1592-1.6855,25.896-7.6472,37.799-3.747,7.4813-8.9488,13.8415-16.3585,17.7723-30.0724,15.953-61.124,29.6-94.6256,36.55-14.8362,3.078-29.9356,3.7273-44.7244-1.2407-10.885-3.6565-18.9329-10.4978-23.8779-20.91-9.3612-19.7117-13.3682-40.9134-17.3995-62.1238-1.7474-9.1935-3.1184-18.3537-7.28-27.1042-5.3069-11.16-3.3019-22.7261.79-34.2239,3.9352-11.0567,10.8153-18.9477,21.7605-22.65,18.31-6.1932,35.1151-15.8408,53.2169-22.4785a358.9565,358.9565,0,0,1,61.8674-16.37c10.2472-1.7922,20.8889-1.2615,31.2708.5307,7.3335,1.2659,12.895,5.4237,17.8065,10.9494,9.7892,11.0133,12.2964,24.8594,15.9816,38.3775A264.2365,264.2365,0,0,1,1602.3246,333.3013Zm-10.6974-4.1221c-.12-21.851-3.9866-42.7633-9.9138-63.3952-1.411-4.911-3.4919-6.0286-7.96-3.906-7.3941,3.5122-15.2337,5.8209-23.05,8.1748-43.32,13.0454-85.4135,29.6655-128.2653,44.0772-5.7145,1.9219-13.5491,1.7381-16.6251,6.2151-3.3989,4.9469.9979,11.9862,2.0262,18.0719,3.1393,18.5783,7.05,36.96,13.8377,54.68,5.2638,13.7419,14.7768,21.27,29.15,23.4183a84.4852,84.4852,0,0,0,29.9733-1.0331c32.8545-6.8911,63.3583-20.1047,92.8068-35.8578,6.8968-3.6894,10.8491-10.2233,13.7486-17.4067C1591.7019,351.4482,1592.1181,340.2139,1591.6272,329.1792Zm-55.6487-101.4618a66.2329,66.2329,0,0,0-6.7421.7538c-23.0026,4.6749-45.7287,10.2527-67.603,19.0473-13.4109,5.3919-25.8016,13.1972-39.765,17.1507-16.9748,4.8061-23.1067,17.9057-24.1532,33.5778-.7869,11.7837,1.2161,13.0755,12.4646,9.1751q52.5244-18.2129,104.952-36.7049c18.9621-6.654,38.5507-11.4328,57.1628-19.1216,1.71-.7065,4.6185-.1874,4.3332-3.3962-.5321-5.9847-12.6675-19.0377-18.6665-18.9241C1550.7906,229.4112,1543.8149,228.0456,1535.9785,227.7174Z" transform="translate(33.0426 44.5319)"/><path class="cls-7" d="M1494.0141,102.2324c6.0877.6526,11.4688,2.062,13.411,9.1186,1.882,6.8373,4.4083,13.4943,6.467,20.2865,2.1109,6.9635-2.4771,11.02-7.0558,14.7663-8.3205,6.8078-8.0826,6.6066-4.7491,16.76,4.1719,12.7066,8.2049,25.4369,13.0383,37.9292,3.4843,9.0052,1.5262,15.7472-4.0344,18.31-6.3989,2.95-13.9029-.396-18.6944-8.55-6.4161-10.9191-9.6313-23.1185-13.6229-34.9894-2.61-7.7609-5.7807-14.3321-12.9989-19.7147-17.954-13.3884-15.9936-35.0648,3.2315-46.4962C1476.1479,105.4058,1487.5013,102.0364,1494.0141,102.2324Zm-22.3612,18.2993c-7.5885,5.2553-9.8934,10.9878-6.5137,18.6372,1.9708,4.4609,3.25,10.4819,11.1063,10.227-4.1946-6.0933-6.146-12.2111-7.5715-18.55-.77-3.4227-.242-6.2171,3.0777-8.0047,6.0334,1.6682,5.6256,7.6458,8.0246,11.7869,2.2418,3.87,1.0867,10.4392,5.0578,11.7463,4.0777,1.3421,7.9258-3.7539,12.0409-5.678,5.3558-2.5041,8.0058-5.6232,4.3759-11.5681-1.1533-1.8889-1.4082-4.3395-2.0073-6.5512-2.2623-8.3527-5.8147-10.5867-14.3059-8.5789C1480.0541,115.1529,1475.376,116.9229,1471.6529,120.5317ZM1505.6,209.7683c1.3059-1.8771.6866-3.0851.2921-4.2284q-7.7511-22.4763-15.5689-44.93a18.5848,18.5848,0,0,0-1.23-2.8756c-1.03-1.8687-2.55-.794-3.87-.4837-1.8708.44-2.0849,1.5833-1.4476,3.3122,5.051,13.7,9.916,27.4709,15.1312,41.1079C1500.1122,204.8221,1501.7865,208.1159,1505.6,209.7683Z" transform="translate(33.0426 44.5319)"/><path class="cls-7" d="M1408.8181,120.47c20.0714.0845,32.0322,13.3211,30.1985,32.4269a14.3767,14.3767,0,0,0,1.3217,6.6818c6.143,15.9834,11.4835,32.24,16.2947,48.6631a110.5968,110.5968,0,0,1,3.1118,15.3406c.6386,4.4414-.796,8.4462-4.8862,10.742a11.0252,11.0252,0,0,1-12.9281-1.0464,27.0322,27.0322,0,0,1-8.0122-10.32c-6.217-13.7072-13.5466-26.9152-18.6976-41.0948-1.3994-3.8525-3.1622-4.9042-7.4142-3.9539-14.1369,3.1592-16.0914,2.0354-22.7363-10.7828-1.1551-2.228-2.08-4.5867-3.3622-6.7356-7.3419-12.3091-3.1936-19.7661,5.6022-29.6654C1392.949,124.3787,1400.1256,119.0485,1408.8181,120.47Zm-19.22,31.8745c-2.2076,3.7064,1.96,5.41,3.4606,8.05,5.4,9.5029,6.9744,10.0189,17.2329,6.4131a37.084,37.084,0,0,0,11.9348-6.7128c7.8243-6.6846,8.7932-14.4178,2.2792-22.3309-3.59-4.3606-8.4981-8.4134-14.2171-7.8178C1397.8346,131.2426,1390.653,139.51,1389.598,152.3442Zm59.3307,72.349c.5211-6.8708-1.5095-12.7164-3.7738-18.5417-1.3572-3.4917-3.0473-6.9763-3.6418-10.6184-1.5323-9.388-5.7457-17.85-8.58-26.779-.353-1.1124-.513-2.51-2.3151-2.3431-3.8638.3584-7.8274,6.7415-6.4746,10.4468,5.3727,14.7165,13.185,28.3182,19.4985,42.6059C1444.5318,221.478,1445.5893,223.6478,1448.9287,224.6932Z" transform="translate(33.0426 44.5319)"/><path class="cls-8" d="M352.8819,449.6972c2.249-33.9869-3.06-67.6782-3.6678-101.5788-.2739-15.2811-.9647-30.5547-1.4533-45.8321-.9241-28.8895-2.54-57.7331-6.3576-86.4031-.7025-5.2751.6768-7.2073,6.2109-6.6828q45.9553,4.3551,91.9474,8.3211c13.5545,1.1713,27.128,2.3373,40.7176,2.8482,62.4051,2.3465,124.8411,1.672,187.2638,1.194,43.7687-.3351,87.5325-1.47,131.2949-2.4121q81.0289-1.7451,162.0506-3.8084c36.4207-.98,72.8407-2.1609,109.24-3.741,48.7459-2.1162,97.4778-4.305,146.274-5.2135,26.81-.4991,53.6272.1484,80.4195-.9368,4.4687-.181,5.1433,1.7514,5.2533,5.5285,1.2461,42.7556-1.2964,85.2961-5.6552,127.8357-3.0146,29.42-.5973,58.9756,1.1494,88.4523,1.2133,20.4775,2.0684,40.9763,3.0727,61.466.8507,17.3559,1.826,34.7072,2.493,52.07.8692,22.6276-.3383,45.1943-1.8014,67.7861-1.8709,28.8868.1855,57.7781,1.322,86.6578.7163,18.1995,1.3949,36.4068,1.6443,54.6168.4163,30.374.4467,60.753.7065,91.1294q.0832,9.7284.6491,19.4505c.262,4.4794-.9172,6.5468-6.0121,7.2769-9.5344,1.3661-18.8111-.4971-28.1912-.8359-12.13-.438-24.2356-1.7306-36.3645-1.9514-41.0493-.7473-82.1056-1.1031-123.1566-1.7656-31.1981-.5035-62.3909-1.6775-93.5887-1.79-59.49-.2145-118.9839,2.1582-178.47.49-48.6005-1.3628-97.2088-1.7346-145.7831-.3827-42.1436,1.173-84.157-1.451-126.2316-2.117-26.5885-.4208-53.17-1.3422-79.75-2.1986-18.8333-.6068-37.6519-1.7738-56.488-2.1623-24.9732-.5151-49.8189,1.1947-74.3044,6.4438-4.2451.91-4.7584-.4639-3.9672-4.0778,1.8954-8.6577,1.7741-17.464,1.7582-26.27-.1317-73.1163-.0272-146.2335-.3969-219.3484-.1959-38.7381-1.2614-77.4713-1.7929-116.2086C352.7067,480.2672,352.8819,464.981,352.8819,449.6972Z" transform="translate(33.0426 44.5319)"/><path class="cls-9" d="M340.6822,865.9611c-.9674-16.6979-1.8684-33.4-2.9166-50.0927-1.9532-31.108-4.27-62.1962-5.8843-93.3213a459.186,459.186,0,0,1,.2345-50.865c1.4108-23.8741.0813-47.72-1.2881-71.556-.168-2.9228-.4934-5.844-.5058-8.767-.163-38.3393.25-76.6906-.6007-115.0142-.5674-25.55.1119-51.1171-1.0692-76.6366-1.4926-32.249-1.3587-64.499-.7741-96.7436.3436-18.9492-2.8044-37.5-4.5449-56.2247a528.3617,528.3617,0,0,1-2.0388-54.5811c.0447-4.1727,1.9993-4.8695,5.468-4.6635,17.3368,1.0294,34.6783,1.9774,52.0189,2.9422,5.6418.3139,11.2832.6493,16.9288.8771,52.1074,2.1026,104.2168,2.848,156.355.91,29.0792-1.0812,58.2078-1.0415,87.2627-2.5173,32.3829-1.6447,64.6874-5.1163,97.12-5.5958,34.7614-.5141,69.5109-2.4048,104.2873-1.4055,14.6412.4208,29.27,1.2757,43.9037,1.9464,39.3076,1.8017,78.6481,3.0812,117.9144,5.5425,56.5217,3.5429,113.0693,2.5067,169.602,1.775,26.9606-.3489,53.8909-2.9392,80.84-4.4153,2.327-.1275,5.1026-1.029,6.6761,1.9956,2.2552,4.3352.35,7.7467-4.5854,7.8024-18.8448.2129-37.6907.5873-56.5293.8457-51.9359.7122-103.7513,4.2613-155.6493,5.729-16.3153.4614-32.6137,1.5344-48.93,1.9556-28.4736.7351-56.9555,1.1444-85.4324,1.7586-37.8934.8173-75.7844,1.7443-113.6781,2.5425-39.988.8422-79.9759,1.73-119.9679,2.3333-34.5555.5208-69.117.9293-103.6754.9-27.852-.0232-55.7242-.2443-83.55-1.3375-33.6516-1.322-67.1872-4.5159-100.6817-8.1224-14.1339-1.5218-28.381-1.9913-42.576-2.9478-2.4192-.163-5.1319.6223-6.7151-2.21-1.4226-2.5449-3.6752-3.5777-6.36-2.4229-3.2107,1.3813-2.8452,4.4191-2.383,7.0892,1.5707,9.0732,2.76,18.184,3.8369,27.3329,2.399,20.3825,3.42,40.86,4.482,61.32,1.7366,33.4419,1.0493,67.0141,4.0973,100.3747,4.7977,52.51-.3189,105.0546,1.5033,157.5606,3.35,96.5342,1.7561,193.1078,2.1306,289.6657C345.0439,848.6861,343.1561,857.3445,340.6822,865.9611Z" transform="translate(33.0426 44.5319)"/><path class="cls-9" d="M1312.7807,255.9305a85.9822,85.9822,0,0,1,2.5573,26.44c-1.4424,21.5714-.5193,43.1433-1.0385,64.7043-.7876,32.7159,1.4986,65.233,4.83,97.7617,2.1728,21.2145,2.2848,42.6332,4.1545,63.887,3.252,36.9684,2.9039,74.0291,4.2138,111.045.9966,28.1682,4.8285,56.2444,4.9559,84.5516.14,31.0217-1.4606,61.9506-3.92,92.8358-1.2571,15.7843,3.1414,30.7165,5.32,46,1.8875,13.2418,4.8838,26.3423,4.8643,39.8357-.0059,4.0394-.2669,5.657-5.4587,5.1584-13.3144-1.2785-26.7976.0487-40.1265-1.8454-35.7135-5.0751-71.6908-6.4866-107.6793-7.0539-28.8955-.4556-57.81-.8115-86.7141.3586-14.43.5842-28.8657.43-43.3069,1.481-102.9433,7.4937-206.044,3.61-309.0817,3.577-28.4187-.009-56.8205-3.4075-85.2591-4.1772-29.2864-.7926-58.7449-3.8379-87.8773-.1979-37.031,4.627-74.0263,2.3249-110.9938,1.7332-24.85-.3978-49.6772-3.4531-74.6094-3.5372-3.2814-.011-6.156-.3572-6.262-5.01-.1141-5.0149,3.1462-4.361,6.2445-4.727,26.7408-3.1591,53.4828-1.9174,80.238-.2354,13.3767.8409,26.8055.9009,40.1843,1.0725,38.75.4971,77.4772,1.8095,116.18,3.3357,58.8789,2.3219,117.7139-2.057,176.5618-.1608,90.7078,2.9227,181.4451-.5765,272.1489,1.3566,34.3533.732,68.7217.2586,103.0489,1.3846,28.0461.92,56.1383.036,84.1425,2.251,7.7137.61,15.44,1.1494,23.1225,2.0473,10.3088,1.205,20.4471-1.1285,30.6984-1.2114,3.6325-.0292,5.8357-3.2865,3.7169-6.7651-2.059-3.38-1.8435-6.7546-1.8826-10.262-.4773-42.7291-.6933-85.463-1.4738-128.1865-.6882-37.671-4.2522-75.2745-3.2164-112.9853.517-18.8211,2.8517-37.5773,2.4466-56.4456-1.0066-46.88-3.4853-93.695-6.1744-140.501-2.14-37.2457-2.8-74.4324,1.8924-111.6014A412.9959,412.9959,0,0,0,1312.7807,255.9305Z" transform="translate(33.0426 44.5319)"/><path class="cls-9" d="M1279.2317,901.3534c.7564,4.2612-1.3151,5.2523-5.4049,4.6455-26.478-3.9281-53.0351-1.9071-79.6134-1.3019-27.0218.6151-53.8591,4.3043-80.8675,4.3882-59.46.1846-118.8957-2.2309-178.3726-1.5046-50.28.614-100.5736.0166-150.858.39-25.3263.188-50.6414,1.7078-75.9685,1.976-43.1478.457-86.1852-2.9231-129.28-4.3538-34.1291-1.133-68.26.2857-102.36,1.7854-32.87,1.4456-65.6544,2.3183-98.2516-3.83-10.4577-1.9724-21.1608-2.9148-31.8622-1.29-3.4219.52-4.9946-.1151-4.2238-4.3113,1.1916-6.4855,2.9264-13.071-.3128-19.6638-.82-1.67-.9028-4.4336.7421-5.9595,2.0538-1.9054,3.2465.6518,4.6706,1.6123a6.2679,6.2679,0,0,0,5.4169.574c2.8377-.7262,5.6911-1.4063,8.5627-1.9818,9.2191-1.8477,9.3084-1.8338,10.2007,7.6023.303,3.2046,1.8757,4.5855,4.8172,5.6648,7.0736,2.5954,14.4854,2.2982,21.725,2.7427,52.047,3.195,104.1627,6.2258,156.2838,3.9154,19.7615-.876,39.4507-4.07,59.3653-3.3892,34.7215,1.1863,69.4519,1.9606,104.1254,4.4873,16.9006,1.2316,33.8945,1.564,50.8483,1.6166q98.0588.3039,196.1188.1275c40.4269-.05,80.6855-3.7686,121.0134-5.97,2.7176-.1484,5.4434-.1994,8.1655-.1989,44.4075.0079,88.8281-.7711,133.208,1.289,15.8712.7366,31.69,2.5436,47.55,3.607C1279.9153,894.3741,1279.1757,897.8532,1279.2317,901.3534Z" transform="translate(33.0426 44.5319)"/><path class="cls-10" d="M185.7667,491.0823c0-12.1031.284-24.214-.05-36.3079-1.2622-45.6251-2.7238-91.2448-4.1148-136.8664-.3309-10.8515.0275-10.9572,10.0961-7.6753,6.3538,2.071,10.9113,6.1705,14.6846,11.2714,10.32,13.9516,14.8424,30.0522,18.5948,46.8112,2.8337,12.6554-.7215,23.3221-4.8308,34.5643-9.7737,26.7391-20.265,53.2269-28.6422,80.4654-.8438,2.7438-1.9955,5.393-3.0042,8.0861Z" transform="translate(33.0426 44.5319)"/><path class="cls-11" d="M157.3379,755.2706c1.94-23.9544,3.6332-44.7081,5.295-65.4644.5322-6.647,1.291-13.2953,1.408-19.9525.2884-16.426-.3468-32.8711,1.5147-49.2549.5622-4.9476,12.3889-15.1692,17.3373-14.538,3.7959.4842,5.1855,2.7205,4.826,6.5941-2.0773,22.3826-3.6695,44.8159-6.1117,67.1571-1.8987,17.3694-3.1877,34.7956-5.5513,52.1424-1.4367,10.5443.7231,21.58,1.2859,32.3941.1186,2.28.745,4.6244.39,6.8181-.6882,4.2482-4.6424,5.82-7.9528,3.1555C162.7066,768.6306,155.2,763.0424,157.3379,755.2706Z" transform="translate(33.0426 44.5319)"/><path class="cls-10" d="M191.1757,642.7734c3.8319,12.1528,7.3209,23.0439,10.6992,33.9692,6.31,20.4079,12.5463,40.8389,18.8449,61.25.6866,2.2253,1.3682,4.3106.2482,6.6666-5.2181,10.9763-12.2712,20.4614-22.3109,27.4766a25.2913,25.2913,0,0,1-6.25,2.8536c-4.421,1.5292-6.5466.912-6.8638-4.8546-2.2872-41.5671,4.0891-82.7649,4.8956-124.1874A24.0628,24.0628,0,0,1,191.1757,642.7734Z" transform="translate(33.0426 44.5319)"/><path class="cls-11" d="M247.801,417.4654c-1.8839-3.1517.3687-6.048.6518-8.9712,1.0734-11.0835-.7051-21.9039-1.8361-32.8486-.62-6-.467-12.455,2.2147-18.3079,9.7381-21.2531,19.8357-42.33,30.8492-62.9591a10.4209,10.4209,0,0,1,.862-1.6706c1.9847-2.4719,2.5519-7.4953,6.3938-6.6439,3.3017.7317,1.2572,5.1176,1.7075,7.8457,1.254,7.5964,2.15,15.2541,3.5023,22.8314,1.418,7.9433-2.7544,14.3863-5.9208,20.74-13.05,26.1871-26.1495,52.3341-37.2616,79.4256C248.8561,417.17,248.2864,417.2434,247.801,417.4654Z" transform="translate(33.0426 44.5319)"/><path class="cls-11" d="M180.6438,500.7237c-.4793,2.1725.6221,4.369-1.3869,5.0936-1.8691.6742-2.7366-1.4722-3.9957-2.4509-7.6975-5.9833-8.0737-14.8712-8.521-23.3159-1.2136-22.9131-2.17-45.8443-3.0092-68.7772-.4966-13.5681.03-27.1654-1.0048-40.6808-1.0864-14.191-.8821-28.3766-1.2474-42.5661-.1465-5.6877,2.3453-9.5251,6.2919-12.959,2.2128-1.9253,3.9057-2.0674,3.8229,1.4044-.13,5.46,1.307,10.8488,1.1771,16.1843-.5041,20.71.9639,41.37,1.7111,62.0147.974,26.91,2.1944,53.7948,2.4668,80.733A103.0674,103.0674,0,0,0,180.6438,500.7237Z" transform="translate(33.0426 44.5319)"/><path class="cls-11" d="M245.6925,719.7034c4.0968,7.5611,7.0428,14.0045,8.7053,20.8354,2.7486,11.2934,7.6909,21.6053,13.0494,31.7753a29.833,29.833,0,0,1,3.6321,15.0119c-.2519,10.003,1.7412,19.9146,1.2862,29.9712a63.5662,63.5662,0,0,1-2.4687,14.1121c-.323,1.1742-.2524,2.7479-1.8194,2.9283-2.0259.2332-2.0932-1.6794-2.5937-2.9459-8.2068-20.7664-15.688-41.8044-23.4777-62.7192-4.23-11.3563-4.6529-21.36-.1692-32.2973C243.76,731.6834,244.206,726.386,245.6925,719.7034Z" transform="translate(33.0426 44.5319)"/><path class="cls-11" d="M226.2006,724.7065c-3.0531-9.8825-6.1727-19.745-9.1464-29.6512-8.0333-26.7609-16.98-53.2567-23.64-80.41-.6176-2.5179-4.4206-6.4591.8559-8.4923,3.8793-1.4947,8.5192,1.6967,9.9161,6.4061,5.063,17.0693,12.28,33.4423,20.3738,49.0568,8.9116,17.192,9.511,34.0664,5.7292,52.0232-.7669,3.6412-1.63,7.2623-2.448,10.8926Z" transform="translate(33.0426 44.5319)"/><path class="cls-10" d="M156.0783,466.7228c-21.7808-41.3649-22.2331-83.2559-3.8218-125.5581Q154.1674,403.9438,156.0783,466.7228Z" transform="translate(33.0426 44.5319)"/><path class="cls-11" d="M175.4221,560.5131c1.1449-16.3186,5.9631-30.9117,20.2925-40.8745,2.3084-1.6049,4.6409-2.4231,6.9275-.9173,3.0016,1.9765,1.1077,4.5529-.1008,6.6082-6.946,11.8135-10.7122,24.2695-9.6695,38.2162a34.7611,34.7611,0,0,0,3.9458,13.6131c1.3592,2.6641,2.53,5.76-.4743,7.92-2.6433,1.9008-5.2038.063-7.412-1.5585C181.1785,577.8278,173.8108,571.8715,175.4221,560.5131Z" transform="translate(33.0426 44.5319)"/><path class="cls-11" d="M229.2455,413.3624c-.75,8.3148-1.1614,16.6771-2.3172,24.9351-2.7991,20-7.64,39.34-19.4834,56.268a59.011,59.011,0,0,1-7.0994,7.9114c-1.0807,1.0733-2.1965,3.2623-4.0176,1.9015-1.5353-1.1473-.4753-3.1024.0971-4.6584,8.8688-24.11,15.8751-48.8808,25.7336-72.6352,1.9282-4.646,2.6381-9.8648,5.4875-14.103Z" transform="translate(33.0426 44.5319)"/><path class="cls-10" d="M152.3461,735.2631c-9.5528-32.4-8.0426-64.2694,5.1211-95.5793Q154.9067,687.4735,152.3461,735.2631Z" transform="translate(33.0426 44.5319)"/><path class="cls-7" d="M218.1535,623.6267c5.87,6.2814,7.6662,14.32,9.5886,22.3032-3.358-7.3746-7.9754-14.2121-9.5241-22.361Z" transform="translate(33.0426 44.5319)"/><path class="cls-7" d="M218.218,623.5689l-.8376-.6557.5076-.3671q.1329.54.2656,1.08Z" transform="translate(33.0426 44.5319)"/><path class="cls-12" d="M1555.6481,450.7043a18.1851,18.1851,0,0,1,12.7346,4.4456c9.1517,7.8292,17.0666,16.6349,22.8451,27.3155,25.2149,46.6042,51.2156,92.7822,75.6649,139.8021,6.29,12.0956,12.361,24.3007,17.1746,37.0438,20.331,53.8215,44.3567,105.8434,74.5824,154.8953a67.3081,67.3081,0,0,1,9.4806,25.789c1.1221,7.7194-.6761,14.2383-7.2153,19.4875-26.262,21.0806-51.3647,43.7726-81.298,59.7806-23.6483,12.6468-48.5456,22.6766-73.1372,33.301-14.201,6.1355-26.7084,1.847-37.4656-8.3093-10.7522-10.1516-18.6078-22.6252-26.8414-34.7492-28.108-41.3882-50.77-85.815-71.9146-130.9965-28.856-61.659-57.0335-123.6357-85.4439-185.5029-2.1807-4.7488-3.8717-9.7208-5.842-14.5681-3.9542-9.7271-1.553-18.5718,4.075-26.7291,6.7077-9.7224,15.0388-17.2442,27.2993-19.48,3.1172-.5685,4.0474.9185,5.4793,2.7634,5.3181,6.8527,9.1182,8.2163,16.7955,4.4692,19.396-9.467,39.88-16.4751,58.9986-26.5782a225.0476,225.0476,0,0,0,23.8946-15.0608c6.0252-4.2226,8.3714-9.71,5.9509-16.8954-1.965-5.8335-.2318-10.5772,4.0146-14.82C1533.4424,458.1506,1547.6189,450.8,1555.6481,450.7043Zm-32.0769,394.7784c-.2642,4.5633,2.1227,6.0918,6.6938,3.9066,4.7181-2.2554,9.3026-4.8053,13.8625-7.374q48.71-27.44,97.3816-54.9467c19.6891-11.123,39.4108-22.19,59.011-33.4677,8.901-5.1215,9.3826-7.3137,5.0365-15.994q-17.8581-35.6671-36.6079-70.8726c-19.7464-37.1752-38.5591-74.8462-58.3176-112.0148-7.5024-14.1136-3.951-15.043-20.4582-6.1668-47.5846,25.5875-94.9713,51.5422-142.4639,77.301-6.2465,3.388-12.3471,7.2908-19.4121,8.7325-7.3618,1.5023-7.7157,2.3584-5.6706,9.8806,3.0433,11.1929,10.6916,19.8239,15.779,29.8658q41.7423,82.3971,83.6387,164.7162C1523.0506,841.0321,1524.725,842.9477,1523.5712,845.4827Zm184.907-81.5c-8.7919-.003-13.6746,3.53-18.4919,6.727-13.4125,8.9012-25.7086,19.3836-39.348,27.9892-20.9538,13.2205-44.1682,22.0246-65.8719,33.8111-13.0328,7.0777-25.1995,15.6324-38.8447,21.7073-8.4641,3.7681-10.5613,11.8147-6.56,20.0209a312.65,312.65,0,0,0,25.4084,42.5346c2.92,4.1593,6.0936,4.5877,10.7889,2.68,7.8522-3.1907,13.8142-9.9722,21.8481-12.15,10.4148-2.8235,18.761-9.0528,27.7495-14.2772,6.1447-3.5714,11.9518-7.7312,18.1417-11.2162q41.8569-23.5668,83.8572-46.8785c4.9306-2.7474,10.1234-5.0407,14.3642-8.9073,2.5693-2.3426,4.8114-4.9534,4.2157-8.639a54.7848,54.7848,0,0,0-4.5106-15.5366c-4.3158-8.9039-10.9994-16.166-15.9527-24.646C1721.3425,770.4747,1715.436,763.91,1708.4782,763.9831ZM1550.71,495.9434c-1.4051-2.9557-3.6108-1.2919-5.4127-.3213q-22.1073,11.906-44.1359,23.9579c-24.4149,13.3516-48.8624,26.6472-73.1274,40.2666-2.6369,1.48-9.0982,2.1082-6.78,6.0558,2.0718,3.529,6.7209-.9281,9.7787-2.5717,21.93-11.788,43.7315-23.8171,65.5641-35.7871q25.3179-13.8808,50.6135-27.8023C1548.6618,498.9434,1550.3106,498.3357,1550.71,495.9434Z" transform="translate(33.0426 44.5319)"/><path class="cls-13" d="M1137.2246,969.175c-27.8083,2.0114-55.6937.675-83.5079,1.752q-39.5236,1.5306-79.0523,2.4773c-38.0429.9044-75.9826,3.9969-113.926,6.8835-10.6289.8085-21.3643.5175-32.0432.32-47.5469-.88-95.058,1.8643-142.5993,1.2882-8.2378-.1-8.4271-.3648-7.1277-8.7043.1289-.827.341-1.6427.4388-2.4725,1.5874-13.474,1.5516-13.9544,14.8215-14.8666,24.4184-1.6786,48.8906-3.9046,73.3622-2.5153,24.09,1.3675,48.1638,1.3122,72.2164.6091,29.4953-.8622,58.9977-1.5122,88.4872-2.4739,36.9991-1.2066,73.9824-3.0378,110.95-5.0092,30.9468-1.65,61.8949-2.9856,92.879-2.1479,13.9937.3783,28.0149,1.26,41.9182,2.84,7.2023.8184,13.57,5.1608,20.1794,8.1909,1.9083.8747,3.8661,2.917,3.3428,5.5816-.5024,2.5582-3.1249,2.4486-4.9848,3.1764-12.5791,4.9221-25.97,3.7188-39.0227,4.9844C1148.1607,969.6114,1142.6714,969.175,1137.2246,969.175Z" transform="translate(33.0426 44.5319)"/><path class="cls-14" d="M1751.082,574.43c.34,2.6405-.76,3.9947-3.4476,4.0277a26.3654,26.3654,0,0,0-13.1374,3.7591c-3.7822,2.2143-5.6461,1.2374-6.5723-2.9926-3.5347-16.14-7.2624-32.2374-10.8456-48.3668-7.8109-35.1612-18.1867-69.6114-28.419-104.1172-11.7165-39.5111-25.7254-78.3631-34.9542-118.5851-4.44-19.3493-7.6832-38.9713-11.6211-58.439-.6056-2.9947.3764-4.3315,3.0818-4.97,4.6807-1.1053,9.3658-2.1956,14.027-3.3791,4.385-1.1134,4.8718,2.2019,5.5767,4.9762,5.9258,23.3169,13.9878,46.0757,18.6422,69.7137,6.3979,32.49,17.0326,63.8536,25.0251,95.9122,4.8628,19.5053,13.0951,37.9042,17.9162,57.4471,8.3145,33.7034,17.111,67.2854,24.0271,101.3184C1750.6305,571.9633,1750.8492,573.1983,1751.082,574.43Z" transform="translate(33.0426 44.5319)"/><path class="cls-15" d="M1613.6989,135.478c-.1116-6.999,3.8588-10.737,11.8353-12.496,5.8455-1.289,7.3791,2.7157,8.5962,6.8305,9.6683,32.6857,20.39,65.0921,26.2493,98.797.5479,3.1524.264,4.5922-3.3522,4.8729a64.2693,64.2693,0,0,0-12.3234,2.183c-4.5843,1.287-6.7639.1491-8.0681-4.6553-7.0752-26.0624-13.1054-52.37-19.0293-78.7067C1616.2771,146.392,1614.867,140.4986,1613.6989,135.478Z" transform="translate(33.0426 44.5319)"/><path class="cls-16" d="M1745.7614,603.4809a9.16,9.16,0,0,1-5.5119-3.8989c-1.6257-2.2482-6.28-3.0065-4.367-7.0626,1.4771-3.1326,12.2694-6.396,14.8781-5.0241,1.4294.7516,1.2849,2.0117,1.2065,3.2186-.2426,3.7289.1159,7.5474-1.5273,11.0859A6.268,6.268,0,0,0,1745.7614,603.4809Z" transform="translate(33.0426 44.5319)"/><path class="cls-17" d="M1745.7614,603.4809A6.268,6.268,0,0,1,1750.44,601.8a11.6508,11.6508,0,0,1,.9191,1.6323c.8193,2.1968,1.3072,4.4815.008,6.6079-.452.74-1.6487.5036-2.1941-.1769C1747.6479,607.96,1743.9433,607.1718,1745.7614,603.4809Z" transform="translate(33.0426 44.5319)"/><path class="cls-18" d="M1591.6272,329.1792c.4909,11.0347.0747,22.269-4.2725,33.0388-2.8995,7.1834-6.8518,13.7173-13.7486,17.4067-29.4485,15.7531-59.9523,28.9667-92.8068,35.8578a84.4852,84.4852,0,0,1-29.9733,1.0331c-14.3731-2.1487-23.8861-9.6764-29.15-23.4183-6.788-17.7206-10.6984-36.102-13.8377-54.68-1.0283-6.0857-5.4251-13.125-2.0262-18.0719,3.076-4.477,10.9106-4.2932,16.6251-6.2151,42.8518-14.4117,84.945-31.0318,128.2653-44.0772,7.8168-2.3539,15.6564-4.6626,23.05-8.1748,4.4684-2.1226,6.5493-1.005,7.96,3.906C1587.6406,286.4159,1591.5067,307.3282,1591.6272,329.1792Z" transform="translate(33.0426 44.5319)"/><path class="cls-18" d="M1535.9785,227.7174c7.8364.3282,14.8121,1.6938,21.9828,1.5579,5.999-.1136,18.1344,12.9394,18.6665,18.9241.2853,3.2088-2.623,2.69-4.3332,3.3962-18.6121,7.6888-38.2007,12.4676-57.1628,19.1216q-52.457,18.4073-104.952,36.7049c-11.2485,3.9-13.2515,2.6086-12.4646-9.1751,1.0465-15.6721,7.1784-28.7717,24.1532-33.5778,13.9634-3.9535,26.3541-11.7588,39.765-17.1507,21.8743-8.7946,44.6-14.3724,67.603-19.0473A66.2329,66.2329,0,0,1,1535.9785,227.7174Z" transform="translate(33.0426 44.5319)"/><path class="cls-8" d="M1471.6527,120.5317c3.7233-3.6088,8.4014-5.3788,13.285-6.5336,8.4912-2.0078,12.0436.2262,14.3059,8.5789.5991,2.2117.854,4.6623,2.0073,6.5512,3.63,5.9449.98,9.064-4.3759,11.5681-4.1151,1.9241-7.9632,7.02-12.0409,5.678-3.9711-1.3071-2.816-7.8768-5.0578-11.7463-2.399-4.1411-1.9912-10.1187-8.0247-11.7868Q1471.7022,121.6867,1471.6527,120.5317Zm20.2018,2.5114c-2.7888-.0968-4.3871,1.4788-4.5584,4.0229-.1963,2.91,1.5667,4.7339,4.48,4.8064,2.7688.0688,4.1131-1.8079,4.1329-4.4036C1495.9292,124.89,1494.7467,123.1081,1491.8545,123.0431Z" transform="translate(33.0426 44.5319)"/><path class="cls-9" d="M1505.6,209.7683c-3.8135-1.6524-5.4878-4.9462-6.6929-8.0972-5.2152-13.637-10.08-27.4075-15.1312-41.1079-.6373-1.7289-.4232-2.8724,1.4476-3.3122,1.3195-.31,2.84-1.385,3.87.4837a18.5848,18.5848,0,0,1,1.23,2.8756q7.8071,22.457,15.5689,44.93C1506.2866,206.6832,1506.9059,207.8912,1505.6,209.7683Z" transform="translate(33.0426 44.5319)"/><path class="cls-18" d="M1471.6527,120.5317q.0495,1.1548.0989,2.31c-3.32,1.7875-3.8475,4.5819-3.0776,8.0046,1.4255,6.339,3.3769,12.4568,7.5715,18.55-7.8564.2549-9.1355-5.7661-11.1063-10.227C1461.76,131.52,1464.0644,125.787,1471.6527,120.5317Z" transform="translate(33.0426 44.5319)"/><path class="cls-8" d="M1389.598,152.3442c1.055-12.8345,8.2366-21.1016,20.69-22.3987,5.719-.5956,10.6275,3.4572,14.2171,7.8178,6.514,7.9131,5.5451,15.6463-2.2792,22.3309a37.084,37.084,0,0,1-11.9348,6.7128c-10.2585,3.6058-11.8333,3.09-17.2329-6.4131C1391.5583,157.7537,1387.39,156.0506,1389.598,152.3442Zm31.8667-3.9835c-.958-3.83-2.3066-8.0162-5.0363-11.5426a4.7143,4.7143,0,0,0-5.6413-1.6123,4.5009,4.5009,0,0,0-3.0847,4.9489,23.8926,23.8926,0,0,0,5.1952,12.5723,4.4415,4.4415,0,0,0,5.6756,1.2585C1420.7,152.9616,1421.4852,151.111,1421.4647,148.3607Zm-23.5806.3908c-2.39.5588-3.9427,1.9654-3.7728,4.734a3.3253,3.3253,0,0,0,3.6063,3.4743c2.6941-.0255,4.3851-1.6058,4.3764-4.2539C1402.0861,150.3272,1400.4368,149.0284,1397.8841,148.7515Z" transform="translate(33.0426 44.5319)"/><path class="cls-8" d="M1448.9287,224.6932c-3.3394-1.0454-4.3969-3.2152-5.2869-5.23-6.3135-14.2877-14.1258-27.8894-19.4985-42.6059-1.3528-3.7053,2.6108-10.0884,6.4746-10.4468,1.8021-.1671,1.9621,1.2307,2.3151,2.3431,2.8344,8.929,7.0478,17.391,8.58,26.779.5945,3.6421,2.2846,7.1267,3.6418,10.6184C1447.4192,211.9768,1449.45,217.8224,1448.9287,224.6932Z" transform="translate(33.0426 44.5319)"/><path class="cls-19" d="M1523.5722,845.4824c1.1528-2.5347-.5216-4.45-1.5282-6.4336q-41.8059-82.365-83.6387-164.7162c-5.0874-10.0419-12.7357-18.6729-15.779-29.8658-2.0451-7.5222-1.6912-8.3783,5.6706-9.8806,7.065-1.4417,13.1656-5.3445,19.4121-8.7325,47.4926-25.7588,94.8793-51.7135,142.4639-77.301,16.5072-8.8762,12.9558-7.9468,20.4582,6.1668,19.7585,37.1686,38.5712,74.84,58.3176,112.0148q18.7149,35.2332,36.6079,70.8726c4.3461,8.68,3.8645,10.8725-5.0365,15.994-19.6,11.2779-39.3219,22.3447-59.011,33.4677q-48.6765,27.4989-97.3816,54.9467c-4.56,2.5687-9.1444,5.1186-13.8625,7.374C1525.6939,851.5745,1523.307,850.046,1523.5722,845.4824Z" transform="translate(33.0426 44.5319)"/><path class="cls-20" d="M1708.4782,763.9831c6.9578-.0735,12.8643,6.4916,16.794,13.2188,4.9533,8.48,11.6369,15.7421,15.9527,24.646a54.7848,54.7848,0,0,1,4.5106,15.5366c.5957,3.6856-1.6464,6.2964-4.2157,8.639-4.2408,3.8666-9.4336,6.16-14.3642,8.9073q-41.9606,23.3823-83.8572,46.8785c-6.19,3.485-11.997,7.6448-18.1417,11.2162-8.9885,5.2244-17.3347,11.4537-27.7495,14.2772-8.0339,2.1782-13.9959,8.96-21.8481,12.15-4.6953,1.9078-7.8689,1.4794-10.7889-2.68a312.65,312.65,0,0,1-25.4084-42.5346c-4.0014-8.2062-1.9042-16.2528,6.56-20.0209,13.6452-6.0749,25.8119-14.63,38.8447-21.7073,21.7037-11.7865,44.9181-20.5906,65.8719-33.8111,13.6394-8.6056,25.9355-19.088,39.348-27.9892C1694.8036,767.5132,1699.6863,763.98,1708.4782,763.9831Zm-69.58,72.326c-1.88.8822-3.8421,1.6224-5.6257,2.6681q-33.6732,19.7422-67.283,39.5924c-1.6152.9547-4.952,1.6015-3.4158,4.1471,1.5524,2.5725,3.6306-.2427,5.18-1.1444,21.0669-12.26,42.0717-24.6265,63.1134-36.93,1.7286-1.0108,3.1933-2.7609,5.5445-2.3372,1.87,11.2108,10.788,18.3791,16.0534,27.6452,1.5434,2.716,3.3014-.0775,3.8045-1.6769,2.0491-6.5146,3.6771-13.1637,5.8-19.6518.854-2.6092.0927-3.5016-2.2684-3.7516q-11.7552-1.245-23.5111-2.4486c.192-1.9391,2.4686-2.0652,3.1288-3.597,24.3229-12.9424,47.5526-27.7587,71.3321-41.6324,1.1851-.6915,3.0179-1.5806,1.6837-3.2657-1.1367-1.4356-2.6859-.2586-3.9285.4723-9.8981,5.8216-19.8749,11.5158-29.6566,17.5275C1665.5577,820.0953,1651.5441,827.0839,1638.8981,836.3091Zm42.3014-4.7526q-3.6651-.73-7.3305-1.459c-4.1219-.8122-5.7543.387-3.7588,4.6022,1.2532,2.647,2.3716,5.3593,3.6691,7.9837,1.3421,2.7142,1.72,7.0783,5.3867,6.9206,3.5823-.154,1.646-4.4444,2.7381-6.6811.2745-.562.4411-1.1815.751-1.7205,1.6219-2.8216,3.2655-5.67,5.768-.636,1.1462,2.306,2.3616,1.9493,3.5649.0529,1.346-2.1215,2.8329-4.1745,3.9678-6.4053,3.4052-6.6938,2.584-8.2726-4.6875-9.5845a20.1082,20.1082,0,0,1-3.0544-.6863c-2.0585-.7174-4.0719-2.802-6.2257-.4-2.0758,2.315-.7178,4.7.1824,7.0238Zm-66.7,40.3112c-1.7846-2.8142-2.22-7.2-6.5152-6.6457-4.1873.5406-1.793,4.9857-3.4212,7.188a2.1773,2.1773,0,0,0-.3227.5373c-2.799,7.9036-1.8184,9.3216,6.7342,9.571,2.8358.0827,5.676.013,8.33.013.6881-3.0245-4.0577-4.7357-1.2288-7.0721,2.1592-1.7831,5.18-.7506,7.7358.3779.5729.253,1.1816.4245,1.7733.6346,1.0843.385,2.124,1.7614,3.32.5112a2.8788,2.8788,0,0,0,.1608-3.5195c-2.7832-4.6554-5.5541-9.33-8.6181-13.8-1.3552-1.9772-3.0275-2.041-3.9423.7536C1617.281,864.1553,1615.9138,867.8468,1614.4994,871.8677Z" transform="translate(33.0426 44.5319)"/><path class="cls-8" d="M1550.71,495.9434c-.3994,2.3923-2.0482,3-3.5,3.7979q-25.3046,13.9053-50.6135,27.8023c-21.8326,11.97-43.6336,23.9991-65.5641,35.7871-3.0578,1.6436-7.7069,6.1007-9.7787,2.5717-2.3178-3.9476,4.1435-4.5758,6.78-6.0558,24.265-13.6194,48.7125-26.915,73.1274-40.2666q22.0305-12.0477,44.1359-23.9579C1547.0992,494.6515,1549.3049,492.9877,1550.71,495.9434Z" transform="translate(33.0426 44.5319)"/><path class="cls-7" d="M1491.8615,123.0386c2.8852.0695,4.0677,1.8514,4.0479,4.43-.02,2.5957-1.3641,4.4724-4.1329,4.4036-2.9137-.0725-4.6767-1.8962-4.48-4.8064C1487.4674,124.5219,1489.0657,122.9463,1491.8615,123.0386Z" transform="translate(33.0426 44.5319)"/><path class="cls-7" d="M1421.4647,148.3607c.0205,2.75-.7651,4.6009-2.8915,5.6248a4.4415,4.4415,0,0,1-5.6756-1.2585,23.8926,23.8926,0,0,1-5.1952-12.5723,4.5009,4.5009,0,0,1,3.0847-4.9489,4.7143,4.7143,0,0,1,5.6413,1.6123C1419.1581,140.3445,1420.5067,144.5306,1421.4647,148.3607Z" transform="translate(33.0426 44.5319)"/><path class="cls-2" d="M1397.8841,148.7515c2.5527.2769,4.202,1.5757,4.21,3.9544.0087,2.6481-1.6823,4.2284-4.3764,4.2539a3.3253,3.3253,0,0,1-3.6063-3.4743C1393.9414,150.7169,1395.4944,149.31,1397.8841,148.7515Z" transform="translate(33.0426 44.5319)"/><path class="cls-9" d="M1636.2871,842.4222q11.7576,1.2208,23.5145,2.4477c2.3611.25,3.1224,1.1424,2.2684,3.7516-2.1234,6.4881-3.7514,13.1372-5.8,19.6518-.5031,1.5994-2.2611,4.3929-3.8045,1.6769-5.2654-9.2661-14.1836-16.4344-16.0534-27.6452Z" transform="translate(33.0426 44.5319)"/><path class="cls-18" d="M1682.17,830.5669c-.9-2.3237-2.258-4.7088-.1822-7.0238,2.1538-2.4019,4.1672-.3173,6.2257.4a20.1082,20.1082,0,0,0,3.0544.6863c7.2715,1.3119,8.0927,2.8907,4.6875,9.5845-1.1349,2.2308-2.6218,4.2838-3.9678,6.4053-1.2033,1.8964-2.4187,2.2531-3.5649-.0529-2.5025-5.0339-4.1461-2.1856-5.768.636-.31.539-.4765,1.1585-.751,1.7205-1.0921,2.2367.8442,6.5271-2.7381,6.6811-3.6671.1577-4.0446-4.2064-5.3867-6.9206-1.2975-2.6244-2.4159-5.3367-3.6691-7.9837-1.9955-4.2152-.3631-5.4144,3.7588-4.6022,2.4443.4817,4.8871.9724,7.3324,1.4566q.7032.1328,1.4031.2707Q1682.3873,831.1958,1682.17,830.5669Z" transform="translate(33.0426 44.5319)"/><path class="cls-18" d="M1614.4994,871.8677c1.4144-4.0209,2.7816-7.7124,4.0054-11.4509.9148-2.7946,2.5871-2.7308,3.9423-.7536,3.064,4.47,5.8349,9.1448,8.6181,13.8a2.8788,2.8788,0,0,1-.1608,3.5195c-1.1958,1.25-2.2355-.1262-3.32-.5112-.5917-.21-1.2-.3816-1.7733-.6346-2.5561-1.1285-5.5766-2.161-7.7358-.3779-2.8289,2.3364,1.9169,4.0476,1.2288,7.0721-2.6538,0-5.494.07-8.33-.013-8.5526-.2494-9.5332-1.6674-6.7342-9.571a2.1773,2.1773,0,0,1,.3227-.5373c1.6282-2.2023-.7661-6.6474,3.4212-7.188C1612.2794,864.6676,1612.7148,869.0535,1614.4994,871.8677Z" transform="translate(33.0426 44.5319)"/><path class="cls-18" d="M1636.4116,842.305c-2.3512-.4237-3.8159,1.3264-5.5445,2.3372-21.0417,12.3036-42.0465,24.67-63.1134,36.93-1.55.9017-3.6277,3.7169-5.18,1.1444-1.5362-2.5456,1.8006-3.1924,3.4158-4.1471q33.6038-19.86,67.283-39.5924c1.7836-1.0457,3.7462-1.7859,5.6254-2.6677q.2606,1.2578.5215,2.5148c-.66,1.5318-2.9368,1.6579-3.13,3.5975Z" transform="translate(33.0426 44.5319)"/><path class="cls-2" d="M1639.4193,838.8243q-.2609-1.2573-.5215-2.5148c12.6463-9.2256,26.66-16.2142,39.9522-24.3835,9.7817-6.0117,19.7585-11.7059,29.6566-17.5275,1.2426-.7309,2.7918-1.9079,3.9285-.4723,1.3342,1.6851-.4986,2.5742-1.6837,3.2657C1686.9719,811.0656,1663.7422,825.8819,1639.4193,838.8243Z" transform="translate(33.0426 44.5319)"/><path class="cls-20" d="M1682.17,830.5669q.2172.629.4341,1.2579-.7006-.1367-1.4031-.2707Q1681.6841,831.0629,1682.17,830.5669Z" transform="translate(33.0426 44.5319)"/></svg>
